#!OML:ASF X:\für Bonn\!DataBase\2005_08_12_Daniel\c3d\Daniel.ASF
:FULLY-SPECIFIED
:DEGREES
122
root -21.8912 16.4969 -21.187 -1.70616 44.5243 -720.302
lowerback 42.0586 2.56114 -2.81215
upperback 10.6685 2.18638 -4.95605
thorax -7.97953 1.47147 -4.80698
lowerneck -5.35918 -1.68718 -7.37661
upperneck -4.6039 -1.77348 3.16365
head -0.432828 -0.757597 2.24266
rclavicle -6.75868e-014 9.62118e-014
rhumerus -23.5635 10.2441 -92.8956
rradius 52.5391
rwrist 0.469529
rhand -25.022 23.7143
rfingers 7.12502
rthumb 1.49028 -6.26023
lclavicle -6.75868e-014 9.62118e-014
lhumerus -13.6746 26.5453 81.4109
lradius 28.4281
lwrist -21.2908
lhand -14.6172 -6.39012
lfingers 7.12502
lthumb 11.534 23.2725
rfemur -7.49901 1.28905 17.1319
rtibia 71.0361
rfoot 0.820724 10.1095
rtoes -11.2478
lfemur -34.6769 -7.42984 -21.7368
ltibia 64.1314
lfoot -26.3369 -3.33198
ltoes -5.78901
123
root -21.8192 16.5018 -21.1366 -1.89647 44.4809 -720.309
lowerback 42.1895 2.50163 -2.79891
upperback 10.668 2.11342 -4.95427
thorax -8.023 1.43817 -4.78666
lowerneck -5.44272 -1.70711 -7.44175
upperneck -4.48725 -1.79025 3.24901
head -0.379216 -0.766952 2.28147
rclavicle -3.97569e-014 5.00937e-014
rhumerus -23.8039 10.0981 -92.8466
rradius 52.2363
rwrist 0.311868
rhand -24.9341 23.8158
rfingers 7.12502
rthumb 1.57519 -6.15818
lclavicle -3.97569e-014 5.00937e-014
lhumerus -13.2515 25.9386 81.8063
lradius 28.6241
lwrist -20.8105
lhand -14.7907 -6.33837
lfingers 7.12502
lthumb 11.3666 23.3336
rfemur -8.55112 0.773844 16.9586
rtibia 71.835
rfoot -0.407648 10.7561
rtoes -10.6054
lfemur -34.0561 -7.47393 -21.8702
ltibia 64.0846
lfoot -26.7221 -3.26103
ltoes -5.68874
124
root -21.7476 16.5062 -21.0868 -2.07406 44.452 -720.269
lowerback 42.3327 2.43499 -2.83114
upperback 10.6703 2.01386 -4.94913
thorax -8.0685 1.39265 -4.72842
lowerneck -5.47467 -1.71063 -7.5252
upperneck -4.43679 -1.78743 3.33803
head -0.356203 -0.76528 2.32606
rclavicle 2.14687e-014 8.74653e-015
rhumerus -24.0275 9.98441 -92.8042
rradius 51.9049
rwrist 0.116837
rhand -24.8264 23.9121
rfingers 7.12502
rthumb 1.67919 -6.06101
lclavicle 2.14687e-014 8.74653e-015
lhumerus -12.8341 25.4462 82.1815
lradius 28.8015
lwrist -20.435
lhand -14.9873 -6.2502
lfingers 7.12502
lthumb 11.177 23.4321
rfemur -9.59603 0.237475 16.7629
rtibia 72.5758
rfoot -1.71849 11.3928
rtoes -10.15
lfemur -33.4115 -7.51986 -22.0458
ltibia 64.0255
lfoot -27.0692 -3.16961
ltoes -5.54375
125
root -21.6767 16.5108 -21.0356 -2.25804 44.4096 -720.252
lowerback 42.4301 2.3771 -2.8536
upperback 10.6939 1.9343 -4.93277
thorax -8.07527 1.35655 -4.66865
lowerneck -5.54193 -1.73546 -7.61039
upperneck -4.36484 -1.81065 3.40746
head -0.319014 -0.776674 2.36367
rclavicle 5.1684e-014 -3.57812e-014
rhumerus -24.235 9.83435 -92.7309
rradius 51.5861
rwrist -0.0532408
rhand -24.7332 24.0122
rfingers 7.12502
rthumb 1.76925 -5.96025
lclavicle 5.1684e-014 -3.57812e-014
lhumerus -12.369 25.0494 82.5945
lradius 28.9617
lwrist -20.1702
lhand -15.2253 -6.2125
lfingers 7.12502
lthumb 10.9475 23.4821
rfemur -10.6687 -0.269884 16.6199
rtibia 73.2484
rfoot -3.0556 12.0054
rtoes -9.76554
lfemur -32.7749 -7.50351 -22.1937
ltibia 63.9609
lfoot -27.4276 -3.14781
ltoes -5.41245
126
root -21.6067 16.5149 -20.985 -2.44429 44.3846 -720.237
lowerback 42.5229 2.31035 -2.89259
upperback 10.7108 1.83799 -4.9032
thorax -8.08927 1.31185 -4.57913
lowerneck -5.57196 -1.73341 -7.67246
upperneck -4.33955 -1.80171 3.46792
head -0.305108 -0.771675 2.39519
rclavicle -3.33958e-014 3.73715e-014
rhumerus -24.4776 9.67717 -92.6841
rradius 51.2824
rwrist -0.220337
rhand -24.6755 24.0994
rfingers 7.12502
rthumb 1.82501 -5.87254
lclavicle -3.33958e-014 3.73715e-014
lhumerus -11.9384 24.6544 82.9898
lradius 29.136
lwrist -19.8997
lhand -15.4734 -6.1117
lfingers 7.12502
lthumb 10.7081 23.5954
rfemur -11.7474 -0.793742 16.4954
rtibia 73.8453
rfoot -4.46227 12.5173
rtoes -9.78022
lfemur -32.1427 -7.45138 -22.3409
ltibia 63.8925
lfoot -27.7772 -3.15537
ltoes -5.3876
127
root -21.5362 16.5191 -20.9341 -2.62694 44.3483 -720.219
lowerback 42.6174 2.24267 -2.93195
upperback 10.7088 1.73632 -4.88725
thorax -8.12483 1.26428 -4.50258
lowerneck -5.60016 -1.73208 -7.66251
upperneck -4.28837 -1.79895 3.48337
head -0.284105 -0.771384 2.39814
rclavicle 3.97569e-015 -4.13472e-014
rhumerus -24.7621 9.49305 -92.6603
rradius 50.988
rwrist -0.323835
rhand -24.5863 24.1521
rfingers 7.12502
rthumb 1.91112 -5.81905
lclavicle 3.97569e-015 -4.13472e-014
lhumerus -11.5233 24.3261 83.3453
lradius 29.273
lwrist -19.7421
lhand -15.7543 -6.05562
lfingers 7.12502
lthumb 10.4372 23.6653
rfemur -12.8289 -1.26446 16.3946
rtibia 74.3498
rfoot -5.92622 12.867
rtoes -10.532
lfemur -31.5036 -7.39744 -22.4878
ltibia 63.8157
lfoot -28.112 -3.14676
ltoes -5.2433
